Underworld Unrated Extened Cut 2003 BluRay 1080p DTS dxva-LoNeWolf

Movie has been tested and is DXVA Compliant


General Information:

RUNTIME........: 2h 13mn
SIZE...........: 10.3 GiB
VIDEO CODEC....: x264 (L4.1)
RESOLUTION.....: 1920x816
BITRATE........: Overall bit rate : 11.1 Mbps
FRAMERATE......: 23.976 fps
AUDIO 1........: English DTS 6 Channels  1510 Kbps
SUBTITLES......: English French Italian 
CHAPTERS.......: YES
SOURCE.........: NTSC Blu-ray 
ENCODED DATE...: UTC 2011-03-07 10:55:23 
Encoder........: TequilaBob a.k.a.bobnjeff \ a.k.a. LoNeWoLf
GENRE..........: Action | Fantasy | Thriller
RATING.........: 6.8/10 X  Users: 6.8/10 (70,310 votes) 776 reviews | Critics: 245 reviews Metascore: 42/100
Release Date...: 19 September 2003 (USA) 
Rated..........: Rated R for strong violence/gore and some language
IMDB link......: http://www.imdb.com/title/tt0320691/


Director: Len Wiseman
Writers: Kevin Grevioux (story), Len Wiseman (story), and 2 more credits » 
Stars:Kate Beckinsale, Scott Speedman, Shane Brolly


Storyline
A war has been raging between the Vampires and Lycan for centuries, Selene (Beckinsale) is a death dealer, assigned to hunt down and eradicate the last of the Lycan. When she comes across Michael Corvin(Speedman)who holds the key to end the war she must decide where her alligances will lie. Written by ShortBrit


Cast
Cast overview, first billed only: 
  Kate Beckinsale  ...  Selene  
  Scott Speedman  ...  Michael Corvin  
  Michael Sheen  ...  Lucian  
  Shane Brolly  ...  Kraven  
  Bill Nighy  ...  Viktor  
  Erwin Leder  ...  Singe  
  Sophia Myles  ...  Erika  
  Robbie Gee  ...  Kahn (as Robby Gee)  
  Wentworth Miller  ...  Dr. Adam Lockwood  
  Kevin Grevioux  ...  Raze  
  Zita Görög  ...  Amelia  
  Dennis J. Kozeluh  ...  Dignitary (as Dennis Kozeluh)  
  Scott McElroy  ...  Soren  
  Todd Schneider  ...  Trix  
  Sándor Bolla  ...  Rigel  


[img]http://torrent-stats.info/f0b0/126ccb1a0.png[/img]



Format : Matroska 
File size : 10.3 GiB 
Duration : 2h 13mn 
Overall bit rate : 11.1 Mbps 
Encoded date : UTC 2011-03-07 10:55:23 
Writing application : mkvmerge v4.4.0 ('Die Wiederkehr') built on Oct 31 2010 21:52:48 
Writing library : libebml v1.0.0 + libmatroska v1.0.0 

Video 
ID : 1 
Format : AVC 
Format/Info : Advanced Video Codec 
Format profile : High@L4.1 
Format settings, CABAC : Yes 
Format settings, ReFrames : 4 frames 
Muxing mode : Container profile=Unknown@4.1 
Codec ID : V_MPEG4/ISO/AVC 
Duration : 2h 13mn 
Bit rate : 9 499 Kbps 
Width : 1 920 pixels 
Height : 816 pixels 
Display aspect ratio : 2.35:1 
Frame rate : 23.976 fps 
Color space : YUV 
Chroma subsampling : 4:2:0 
Bit depth : 8 bits 
Scan type : Progressive 
Bits/(Pixel*Frame) : 0.253 
Stream size : 8.73 GiB (84%) 
Writing library : x264 core 112 r1867 22bfd31 
Encoding settings : cabac=1 / ref=5 / deblock=1:-3:-3 / analyse=0x3:0x113 / me=umh / subme=10 / psy=1 / psy_rd=1.00:0.08 / mixed_ref=1 / me_range=64 / chroma_me=1 / trellis=2 / 8x8dct=1 / cqm=0 / deadzone=21,11 / fast_pskip=0 / chroma_qp_offset=-3 / threads=6 / sliced_threads=0 / nr=0 / decimate=0 / interlaced=0 / constrained_intra=0 / bframes=6 / b_pyramid=1 / b_adapt=1 / b_bias=0 / direct=1 / weightb=1 / open_gop=2 / weightp=2 / keyint=250 / keyint_min=23 / scenecut=50 / intra_refresh=0 / rc_lookahead=100 / rc=2pass / mbtree=1 / bitrate=9499 / ratetol=1.0 / qcomp=0.60 / qpmin=10 / qpmax=51 / qpstep=4 / cplxblur=20.0 / qblur=0.5 / vbv_maxrate=50000 / vbv_bufsize=50000 / nal_hrd=none / ip_ratio=1.40 / aq=1:1.50 
Language : English 

Audio 
ID : 2 
Format : DTS 
Format/Info : Digital Theater Systems 
Codec ID : A_DTS 
Duration : 2h 13mn 
Bit rate mode : Constant 
Bit rate : 1 510 Kbps 
Channel(s) : 6 channels 
Channel positions : Front: L C R, Side: L R, LFE 
Sampling rate : 48.0 KHz 
Bit depth : 16 bits 
Stream size : 1.41 GiB (14%) 

Text 
ID : 3 
Format : PGS 
Codec ID : S_HDMV/PGS 
Codec ID/Info : The same subtitle format used on BDs/HD-DVDs 
Language : English French Italian



Menu & 15 Chapters


See all 20 full size 1920x816 PNG files at the link below
 
http://s1015.photobucket.com/albums/af279/tequila-bob/Underworld%20Unrated%20Extened%20Cut%202003/

 
http://www.imagebam.com/image/723176122639705
 
http://www.imagebam.com/image/9b710c122639715
 
http://www.imagebam.com/image/a634db122639723
 
http://www.imagebam.com/image/d87935122639729
 
http://www.imagebam.com/image/abc382122639735
 
http://www.imagebam.com/image/62a2bd122639740
 
http://www.imagebam.com/image/052065122639781
 
http://www.imagebam.com/image/5bb0df122639843